<svg version="1" xmlns="http://www.w3.org/2000/svg" width="1365.333" height="1365.333" viewBox="0 0 1024.000000 1024.000000"><path d="M472.5 67c-35.8.6-36.2.6-41 7.8-4.4 6.6-10.4 38.3-16.8 88.7l-3.2 25-10.4 3.7c-5.8 2.1-17 6.7-25 10.3-8 3.7-15.1 6.8-15.7 7.1-.6.3-18.6-13.1-39.9-29.7-21.4-16.6-40.6-31.3-42.8-32.7-2.5-1.7-5.7-2.7-9.3-3-7.1-.6-13 2.4-26.7 13.4-19.4 15.5-62.4 58.9-79.2 79.9-8.8 10.9-11.5 16-11.5 21.8 0 5.8 2.8 10 23 34.9 16.5 20.5 43 55.4 43 56.7 0 .5-2.9 6.8-6.4 14.2-3.5 7.4-8.3 18.8-10.7 25.4-2.3 6.6-4.5 12.3-4.8 12.7-.4.4-23.3 4.1-51.1 8.3-27.8 4.1-52.6 8-55.1 8.6-3.1.7-5.8 2.2-8.2 4.7-7 7.2-6.7 3.8-6.7 78.5 0 47.7.3 68.4 1.1 70.8 1.7 5.1 5.3 9.4 9.4 11.3 2.3 1.1 22.1 4.5 53.8 9.2 27.6 4 51.6 7.6 53.4 7.9 2.9.5 3.3 1.1 4.8 6.3 2.7 9.1 10.3 27.8 16.2 39.5 2.9 6 5 11.3 4.6 12-1.2 2.1-15.4 20.9-26.7 35.2-6 7.7-10 13.1-8.7 12.1l2.2-2 4.4 4.4c2.5 2.4 4.5 4.7 4.5 5.1 0 .3-4.5 6.4-10.1 13.5-12.8 16.5-15.3 20.5-14.5 24.1 1.5 6.8 40.1 47.6 78.1 82.6 13.7 12.7 17.6 15.7 19.9 15.7 2.2 0 7.2-3.2 20.2-12.9l17.2-13 4.9 5.2 4.8 5.2 23.6-17.8 23.6-17.8 8.9 4.2c10.7 4.9 31.2 13.2 37.3 15 2.6.8 4.6 2.1 5.2 3.3.4 1.2 4.2 25 8.4 53.1 4.2 28 8.3 52.9 9.1 55.2 1.8 5 6.9 9.5 12.3 11.2 2.7.8 23.6 1.1 71.2 1.1 63.4 0 67.6-.2 71.4-1.9 8.2-3.8 10.3-8 14.6-29 3-14.6 9.6-58.8 12-79.8l1.2-11.1 11.6-4.3c6.4-2.3 17.9-7 25.6-10.6 7.7-3.5 14.3-6.5 14.6-6.6.3-.1 18.1 13.5 39.5 30.3 21.4 16.7 40.7 31.4 43 32.7 6.7 3.7 12.4 4 18.6 1 8.1-4 20.8-14.1 37.3-29.6 28.7-27 66.4-68.5 69.4-76.4 1.8-4.6 1.3-11-1.2-15.8-1.2-2.4-9.8-13.7-18.9-25-17.9-22.2-44.8-57.5-44.8-58.8 0-.4 2.4-5.9 5.3-12.2 5.5-11.6 15.7-36.9 15.7-38.7 0-1.4-1.4-1.1 56-9.7 27.8-4.2 52.2-8.3 54.3-9.2 4.4-1.9 8.1-5.9 10.2-11 2.3-5.4 2.2-137.6-.1-143.1-2-4.8-6.9-9.9-10.8-11.1-1.7-.6-25.4-4.4-52.6-8.5-27.2-4.2-50.9-7.8-52.7-8.1-3-.5-3.3-1.1-5.9-8.8-3-9.1-12.8-32.6-17.5-41.8l-3-5.9 6.3-8.3c3.4-4.5 15.5-20.1 26.8-34.7 22.9-29.5 27-35.1 29.4-39.7 2.1-4.2 2.1-13.4 0-17.6-4.8-9.3-34.1-41.6-61.6-67.8-40.2-38.3-39.7-37.9-49.6-37.9-7.3 0-4.2-2-53.9 35.4-37 27.9-39.8 29.8-42.2 28.9-1.4-.6-9.3-4-17.6-7.6-8.2-3.5-18.7-7.7-23.2-9.2-7.1-2.4-8.3-3.1-8.7-5.4-.3-1.4-3.9-25.1-8.1-52.6-4.1-27.5-7.9-51.7-8.5-53.7-1.3-4.5-7-10.3-11.4-11.7-3.8-1.2-67.1-1.8-111.1-1.1z"/><path d="M177.9 711.7c-1.3 1.6-1.2 1.7.4.4 1.6-1.3 2.1-2.1 1.3-2.1-.2 0-1 .8-1.7 1.7zM174.4 716.2l-1.9 2.3 2.3-1.9c2.1-1.8 2.7-2.6 1.9-2.6-.2 0-1.2 1-2.3 2.2zM170.9 720.7c-1.3 1.6-1.2 1.7.4.4.9-.7 1.7-1.5 1.7-1.7 0-.8-.8-.3-2.1 1.3zM166 727c-1.7 2.2-2.9 4-2.7 4 .3 0 2-1.8 3.7-4 1.7-2.2 2.9-4 2.7-4-.3 0-2 1.8-3.7 4zM158.9 736.7c-1.3 1.6-1.2 1.7.4.4.9-.7 1.7-1.5 1.7-1.7 0-.8-.8-.3-2.1 1.3zM156 741.1c-.7 1.1-1 2.3-.7 2.5.2.2.9-.7 1.5-2.1 1.4-3 .7-3.3-.8-.4zM158 764.4c0 .2.8 1 1.8 1.7 1.5 1.3 1.6 1.2.3-.4s-2.1-2.1-2.1-1.3zM161 768.4c0 .2.8 1 1.8 1.7 1.5 1.3 1.6 1.2.3-.4s-2.1-2.1-2.1-1.3zM166 774.5c1.3 1.4 2.6 2.5 2.8 2.5.3 0-.5-1.1-1.8-2.5s-2.6-2.5-2.8-2.5c-.3 0 .5 1.1 1.8 2.5zM172 781.5c1.9 1.9 3.6 3.5 3.9 3.5.3 0-1-1.6-2.9-3.5s-3.6-3.5-3.9-3.5c-.3 0 1 1.6 2.9 3.5zM184.5 795c3.8 3.8 7.2 7 7.4 7 .3 0-2.6-3.2-6.4-7-3.8-3.9-7.2-7-7.4-7-.3 0 2.6 3.1 6.4 7zM213.5 824c5.5 5.5 10.2 10 10.5 10 .2 0-4-4.5-9.5-10s-10.2-10-10.5-10c-.2 0 4 4.5 9.5 10zM232 841.5c3 3 5.7 5.5 5.9 5.5.3 0-1.9-2.5-4.9-5.5-3-3-5.7-5.5-5.9-5.5-.3 0 1.9 2.5 4.9 5.5zM309.9 837.7c-1.3 1.6-1.2 1.7.4.4 1.6-1.3 2.1-2.1 1.3-2.1-.2 0-1 .8-1.7 1.7zM305.9 840.7c-1.3 1.6-1.2 1.7.4.4 1.6-1.3 2.1-2.1 1.3-2.1-.2 0-1 .8-1.7 1.7zM299 845.6c-2.5 1.9-5.2 4.2-6 5.1-.8.9 1.3-.5 4.8-3.1 3.4-2.6 6.2-4.9 6.2-5.2 0-.7-.2-.5-5 3.2zM244.5 853c2.7 2.7 5.1 5 5.4 5 .3 0-1.7-2.3-4.4-5-2.7-2.8-5.1-5-5.4-5-.3 0 1.7 2.2 4.4 5zM288.9 853.7c-1.3 1.6-1.2 1.7.4.4.9-.7 1.7-1.5 1.7-1.7 0-.8-.8-.3-2.1 1.3zM284.9 856.7c-1.3 1.6-1.2 1.7.4.4.9-.7 1.7-1.5 1.7-1.7 0-.8-.8-.3-2.1 1.3zM280.9 859.7c-1.3 1.6-1.2 1.7.4.4 1.6-1.3 2.1-2.1 1.3-2.1-.2 0-1 .8-1.7 1.7zM253.5 861c1 1.1 2 2 2.3 2 .3 0-.3-.9-1.3-2s-2-2-2.3-2c-.3 0 .3.9 1.3 2zM264.3 865.7c1.5.2 3.7.2 5 0 1.2-.2 0-.4-2.8-.4-2.7 0-3.8.2-2.2.4z"/></svg>